<svg xmlns="http://www.w3.org/2000/svg" viewBox="0 0 367 115.45"><defs><style>.cls-1{fill:#fff;}.cls-2{fill:#003fa5;}</style></defs><g id="Camada_2" data-name="Camada 2"><g id="Camada_1-2" data-name="Camada 1"><path class="cls-1" d="M356.78,64.61a17.2,17.2,0,0,0,2-6.3,15.76,15.76,0,0,0-5.06-13.64c-3.52-3.23-8.49-5.18-14.79-5.79-1.62-.16-3.24-.24-4.81-.24A40.33,40.33,0,0,0,316,42.74c2.75-7.71,5.1-14.83,5.44-20.07A17,17,0,0,0,316.28,9c-3.4-3.24-8.16-5.12-13.76-5.44-.58,0-1.16,0-1.74,0a31.94,31.94,0,0,0-14.2,3.29,21.66,21.66,0,0,0-13.35-4.52l-.83,0c-9,0-18.64,4-21.84,10.27a18.67,18.67,0,0,0-6.9-1.27c-9.75,0-18.63,8.82-18.63,18.51a14.31,14.31,0,0,0,2.43,7.87l-.44.23a17,17,0,0,0-10.24-3.24h-.73A18.06,18.06,0,0,0,205.92,38a14.41,14.41,0,0,0-8.78-2.71l-.72,0c-6.3.22-11.48,1.31-15.31,3.11-.26-.14-.53-.28-.8-.4a24.1,24.1,0,0,0,.28-5.19,10.71,10.71,0,0,0-11-9.64l-.89,0c-4.44.31-8,2.81-10.6,7.47s-6.42,8-8.38,8.1a10.76,10.76,0,0,0-4.37,1.29,11.46,11.46,0,0,0-5-1.1,13.29,13.29,0,0,0-1.4.08,32.9,32.9,0,0,0-8.51,2.58l-1.46.58a28.59,28.59,0,0,0-7.82-1.06,36,36,0,0,0-3.8.21c-9.32,1-15.78,4.24-20.22,7.85,1.53-12.74,3.91-22.35,5.53-25.09l.18-.28.52-.1a11,11,0,0,0,7-4,9.77,9.77,0,0,0,1.89-7.94C111.14,6,104.68,0,94.5,0A27.18,27.18,0,0,0,90,.39C82,1.71,76.72,6.5,74.18,14.57c-.48,1.49-.9,3-1.28,4.65C68,13.35,60.94,8.72,50.14,8.16c-.76-.05-1.51-.07-2.24-.07-12.12,0-17.62,6.35-18.65,11.79-1.1,5.78,2.72,10.92,8.87,12l.52.09.13.21a5.12,5.12,0,0,1,.69,1.78c3.07,16.37-2.84,35.86-7.59,42.88,0-.33-.08-.68-.15-1a10.26,10.26,0,0,0-10.39-8.17,12.73,12.73,0,0,0-2.12.18C9.81,69.33-2.25,81.64.36,95.42c2.23,11.79,13,20,26.15,20a35,35,0,0,0,5.72-.49c14.78-2.47,23-12.64,27.44-22.58l.45,1.74a11.1,11.1,0,0,0,11.06,8.8,12.94,12.94,0,0,0,2.21-.19l12.68-2.12A11.79,11.79,0,0,0,95.17,94a22.87,22.87,0,0,0,13.64,4.27,25.18,25.18,0,0,0,2.86-.16A32.89,32.89,0,0,0,125.84,93a19.92,19.92,0,0,0,9.65,2.41c.79,0,1.6,0,2.41-.13a29.55,29.55,0,0,0,13.22-4.77,24.36,24.36,0,0,0,11.33,2.59c.74,0,1.52,0,2.29-.08a30.26,30.26,0,0,0,14-5,21.05,21.05,0,0,0,11.71,3.3l1,0c10.5-.38,20.29-5.16,27.81-11.84,3.25,6.52,10.61,10.65,20.07,10.65a29.86,29.86,0,0,0,13.89-3.43,24,24,0,0,0,12.66,3.7h.83a29.57,29.57,0,0,0,13-3,24.1,24.1,0,0,0,12.49,4c.58,0,1.16.05,1.72.05A29.54,29.54,0,0,0,308,87.85c4.56,3.47,10.71,5.68,18.09,6.4,1.53.15,3.05.23,4.53.23h0c14,0,22.18-6.63,26.6-10.2,2.08-1.7,5.56-4.54,6.1-9.42A9.76,9.76,0,0,0,356.78,64.61Z"/><path class="cls-2" d="M216.39,43.1c-4.29.16-7.69,2.85-7.51,7.25s3.46,5,3.55,7.34c.25,6.23-6.3,14.79-11.89,15a2.57,2.57,0,0,1-3-2.7c-.31-7.46,4-17.77,3.74-23.15-.08-2.08-1.69-3.13-4.55-3-7.54.27-14.35,2.35-14.24,5,.06,1.59.85,1.8.94,3.88.14,3.6-2.47,10-3.25,16.64l-.25.23c-1.94,1.73-4.35,4.23-7,4.41-3.11.22-5.17-1-5.46-4.64-.32-4,.87-10.37,1.63-14,.67-3,2-4.06,5.27-4.29,1.55-.11,2.84-1.92,2.65-4.36-.08-1-.89-1.29-1.92-1.22-3.9.28-4.48-.54-4.61-2.12-.17-2.08,1.25-7.21,1-9.89a1.94,1.94,0,0,0-2.23-1.81c-1.17.09-2.15.89-3.29,2.93-3,5.36-8.82,12.16-15.69,12.64-1.43.1-2,2.47-1.93,3.69.18,2.2,3.6,1,3.73,2.56.47,5.91-2.82,12.08-2.46,19.55-1.42,1.67-2.35,2.71-4.48,2.93-2.33.25-4.62-1.35-5-4.51-1.15-9.48,2.23-19.44,1.88-22.36-.16-1.34-1-1.74-2.16-1.62-3,.32-8.25,3.23-10.45,3.46s-4.29-1.88-11.14-1.15c-18.48,2-24.75,15.09-23.29,27.12C96.23,86.3,103,90.5,110.65,89.68c9.43-1,15.5-8.18,15.5-8.18a10.57,10.57,0,0,0,10.74,5.37,20.87,20.87,0,0,0,14.25-8.12c2,3.84,6.18,6.31,12.93,5.83,6.15-.43,12.27-5,16.18-9,.92,4.2,4.52,7.47,10.81,7.25,17.55-.63,34.13-18.61,33.62-31.32C224.46,46.12,221.33,42.92,216.39,43.1ZM123.07,74.44c-1.23,3.82-3.57,6.17-6,6.43-2.84.3-4.7-2.08-5.08-5.24-.81-6.69.88-19.79,8.24-20.58,2.72-.29,4,.92,4.31,3.11C125.08,62.9,124.24,71.11,123.07,74.44Z"/><path class="cls-2" d="M241.33,36.36c4.94,0,9.62-5.26,9.62-10.16,0-3.67-2.61-6.48-7.29-6.48-4.94,0-9.62,5.15-9.62,10C234,33.43,237.3,36.36,241.33,36.36Z"/><path class="cls-2" d="M353,72.38a5.09,5.09,0,0,0-2.87,1.19c-3.09,1.92-8.07,5.49-14.67,4.84-6.21-.61-9.34-4.23-8.86-8.49,13,.29,22.45-5.55,23.22-12.49.58-5.23-3-9.27-11.83-10.13-17.2-1.69-28.47,7.91-29.78,19.71a21.09,21.09,0,0,0-.06,4.11l-.2.17c-1.79,1.49-2.89,2.41-5.1,2.29s-4-2.07-3.83-5.25c.75-11.72,12.73-35.92,13.39-46.17.39-6.11-3.68-9.77-10.43-10.15-7.4-.42-14.54,3.22-14.71,5.78-.06,1,.56,1.5,1.73,1.57,2.86.16,4.94,2.24,4.68,6.27C292.48,44.09,282,58.88,280.81,69.9c-1.68,1.49-2.75,2.41-4.92,2.35-2.34-.06-4.11-2-4-5.12.36-11.74,11.53-36.28,11.85-46.55.19-6.11-4-9.65-10.76-9.84-7.41-.2-14.43,3.65-14.51,6.21,0,1,.61,1.49,1.78,1.52,2.86.08,5,2.1,4.88,6.13-.57,18.48-10.56,33.56-11.37,44.62-1.64,1.54-2.68,2.49-4.85,2.49-2.34,0-4.3-1.83-4.3-5,0-8.07,4.15-15.78,4.15-20.67,0-2.08-1.56-3.18-4.42-3.18-7.55,0-14.44,1.85-14.44,4.54,0,1.59.78,1.83.78,3.91,0,4.4-4.28,12.36-4.28,20.19,0,5.62,4.3,10.15,12.89,10.14A21.28,21.28,0,0,0,254.5,75c1.52,3.94,5.28,6.74,11.59,6.92a21,21,0,0,0,15.28-6.21c1.4,4,5.06,6.88,11.35,7.24A21.46,21.46,0,0,0,309.41,76c2.67,5.83,9.12,9,17.64,9.83,12.55,1.23,19.55-4.11,24.29-8,2.16-1.76,2.91-2.67,3-3.89A1.42,1.42,0,0,0,353,72.38ZM337.66,52.56c2.07.2,3,1.27,2.8,3.1-.32,2.92-5.79,8.53-13.31,9.15C328,57.63,333.78,52.18,337.66,52.56Z"/><path class="cls-2" d="M101.8,15.46a1.7,1.7,0,0,0,1.58-2.13c-.45-2.41-4.54-5.83-11.84-4.61-5.12.86-7.33,3.84-8.73,8.3C79.73,26.6,79,39,78.57,57.48,77,50.3,74.39,40.29,71.89,34.75,67.36,24.57,61.77,17.24,49.56,16.61c-7.88-.48-11,2.46-11.44,4.75a1.68,1.68,0,0,0,1.57,2.13c3.08.51,4.93,1.2,7,4.52a13.76,13.76,0,0,1,1.68,4.35c4,21.31-5.27,53.18-16.8,55.11-5.25.88-8-1.89-8.59-4.9-.52-2.77.19-3.88-.08-5.33-.16-.84-.78-1.36-2.07-1.14-4.86.81-13.21,9-11.55,17.83,1.59,8.43,9.9,14.62,21.43,12.69C56.14,102.36,57.38,67,58.3,48.82l.64-.1c4.26,12.7,6,28.43,9.94,43.43.51,2,1.52,2.48,2.93,2.25l12.68-2.13c1.8-.3,3-1.49,2.67-4C84.92,58.91,90.35,27.56,94.86,20,96.87,16.65,98.73,16,101.8,15.46Z"/><path class="cls-1" d="M367,28.5c0,4.11-3.43,7.33-7.89,7.33s-7.94-3.22-7.94-7.33,3.52-7.24,7.94-7.24S367,24.48,367,28.5Zm-13.85,0a5.79,5.79,0,0,0,6,5.79,5.79,5.79,0,1,0-.05-11.57A5.79,5.79,0,0,0,353.15,28.5Zm4.74,3.8H356.1V25.06a15.87,15.87,0,0,1,3-.23,5,5,0,0,1,2.68.54,1.94,1.94,0,0,1,.75,1.58,1.88,1.88,0,0,1-1.59,1.68v.09a2.16,2.16,0,0,1,1.4,1.77,5.39,5.39,0,0,0,.57,1.81h-1.93a6.35,6.35,0,0,1-.61-1.77c-.14-.79-.61-1.15-1.6-1.15h-.84Zm.05-4.11h.84c1,0,1.79-.31,1.79-1.06s-.52-1.1-1.65-1.1a4,4,0,0,0-1,.09Z"/></g></g></svg>